HIERARCHY
ROOT Hips
{
	OFFSET 0.000000 0.000000 0.000000
	CHANNELS 6 Xposition Yposition Zposition Xrotation Yrotation Zrotation
	JOINT LeftUpLeg_virtual
	{
		OFFSET 0.000000 0.000000 0.000000
		CHANNELS 3 Xrotation Yrotation Zrotation
		JOINT LeftUpLeg
		{
			OFFSET 10.205400 -3.823500 0.155100
			CHANNELS 3 Xrotation Yrotation Zrotation
			JOINT LeftLeg
			{
				OFFSET 0.708757 -12.982077 0.567790
				CHANNELS 3 Xrotation Yrotation Zrotation
				JOINT LeftFoot
				{
					OFFSET -0.708756 -10.717838 -2.184338
					CHANNELS 3 Xrotation Yrotation Zrotation
					JOINT LeftToeBase
					{
						OFFSET 0.108149 -7.191104 7.560241
						CHANNELS 3 Xrotation Yrotation Zrotation
						JOINT LeftToe_End
						{
							OFFSET 0.070230 0.081724 4.490308
							CHANNELS 3 Xrotation Yrotation Zrotation
							End Site
							{
								OFFSET 0 0 0
							}
						}
					}
				}
			}
		}
	}
	JOINT RightUpLeg_virtual
	{
		OFFSET 0.000000 0.000000 0.000000
		CHANNELS 3 Xrotation Yrotation Zrotation
		JOINT RightUpLeg
		{
			OFFSET -10.205400 -3.823500 0.005500
			CHANNELS 3 Xrotation Yrotation Zrotation
			JOINT RightLeg
			{
				OFFSET -0.708756 -12.982134 0.610632
				CHANNELS 3 Xrotation Yrotation Zrotation
				JOINT RightFoot
				{
					OFFSET 0.708754 -10.717769 -1.945823
					CHANNELS 3 Xrotation Yrotation Zrotation
					JOINT RightToeBase
					{
						OFFSET -0.108140 -7.191069 7.372968
						CHANNELS 3 Xrotation Yrotation Zrotation
						JOINT RightToe_End
						{
							OFFSET -0.070227 0.081735 4.479403
							CHANNELS 3 Xrotation Yrotation Zrotation
							End Site
							{
								OFFSET 0 0 0
							}
						}
					}
				}
			}
		}
	}
	JOINT Spine_virtual
	{
		OFFSET 0.000000 0.000000 0.000000
		CHANNELS 3 Xrotation Yrotation Zrotation
		JOINT Spine
		{
			OFFSET 0.000000 6.876099 0.125700
			CHANNELS 3 Xrotation Yrotation Zrotation
			JOINT Spine1
			{
				OFFSET 0.000000 5.730043 0.104720
				CHANNELS 3 Xrotation Yrotation Zrotation
				JOINT Spine1_split
				{
					OFFSET 0.000000 5.730043 0.104720
					CHANNELS 3 Xrotation Yrotation Zrotation
					JOINT Spine2
					{
						OFFSET 0.000000 5.730043 0.104720
						CHANNELS 3 Xrotation Yrotation Zrotation
						JOINT Neck_virtual
						{
							OFFSET 0.000000 0.000000 0.000000
							CHANNELS 3 Xrotation Yrotation Zrotation
							JOINT Neck
							{
								OFFSET 0.000000 10.314075 0.188496
								CHANNELS 3 Xrotation Yrotation Zrotation
								JOINT Head
								{
									OFFSET 0.000000 7.643700 -2.377400
									CHANNELS 3 Xrotation Yrotation Zrotation
									JOINT HeadTop_End
									{
										OFFSET 0.000000 43.788605 -13.619600
										CHANNELS 3 Xrotation Yrotation Zrotation
										End Site
										{
											OFFSET 0 0 0
										}
									}
								}
							}
						}
						JOINT LeftShoulder_virtual
						{
							OFFSET 0.000000 0.000000 0.000000
							CHANNELS 3 Xrotation Yrotation Zrotation
							JOINT LeftShoulder
							{
								OFFSET 2.196100 4.412489 0.087492
								CHANNELS 3 Xrotation Yrotation Zrotation
								JOINT LeftShoulder_split
								{
									OFFSET 2.196100 4.412489 0.087492
									CHANNELS 3 Xrotation Yrotation Zrotation
									JOINT LeftArm
									{
										OFFSET 8.771219 -2.981674 -0.026999
										CHANNELS 3 Xrotation Yrotation Zrotation
										JOINT LeftForeArm
										{
											OFFSET 8.512804 0.000000 -0.000000
											CHANNELS 3 Xrotation Yrotation Zrotation
											JOINT LeftHand
											{
												OFFSET 18.484802 0.000000 -0.000000
												CHANNELS 3 Xrotation Yrotation Zrotation
												End Site
												{
													OFFSET 0 0 0
												}
											}
										}
									}
								}
							}
						}
						JOINT RightShoulder_virtual
						{
							OFFSET 0.000000 0.000000 0.000000
							CHANNELS 3 Xrotation Yrotation Zrotation
							JOINT RightShoulder
							{
								OFFSET -2.196100 4.412496 0.070690
								CHANNELS 3 Xrotation Yrotation Zrotation
								JOINT RightShoulder_split
								{
									OFFSET -2.196100 4.412496 0.070690
									CHANNELS 3 Xrotation Yrotation Zrotation
									JOINT RightArm
									{
										OFFSET -8.771282 -2.981682 -0.094208
										CHANNELS 3 Xrotation Yrotation Zrotation
										JOINT RightForeArm
										{
											OFFSET -8.494598 0.000000 0.000000
											CHANNELS 3 Xrotation Yrotation Zrotation
											JOINT RightHand
											{
												OFFSET -18.483803 0.000000 0.000001
												CHANNELS 3 Xrotation Yrotation Zrotation
												End Site
												{
													OFFSET 0 0 0
												}
											}
										}
									}
								}
							}
						}
					}
				}
			}
		}
	}
}
MOTION
Frames: 6
Frame Time: 0.03333333
-0.039772 31.230637 3.780264 0.000000 0.000000 0.000000 -14.528642 -1.373458 -4.780823 -34.073106 22.032676 10.908251 48.164827 -7.670926 11.744749 -5.296638 -7.203120 -0.891984 -1.971088 0.121597 -1.254776 0.000000 0.000000 0.000000 -14.208252 -0.661472 -4.780859 -16.795027 -31.823996 -0.604948 36.622713 9.684718 -11.089601 -4.477142 7.919065 -4.977928 -1.979747 0.533499 -0.092184 0.000000 0.000000 0.000000 -14.423596 -1.645791 -5.176238 5.154000 -1.529230 2.078734 13.612760 -0.785800 -0.561454 0.482033 2.386744 -0.450217 0.000000 0.000000 0.000000 12.154953 -0.242356 -0.738218 12.050040 0.720115 1.074645 -2.472627 0.632412 3.007814 0.000000 0.000000 0.000000 12.446059 -0.122480 -0.821259 0.849166 6.750793 -10.182566 -2.005610 -2.666708 -0.534526 65.366871 -67.225310 -5.001174 0.226426 -26.939511 1.338323 0.000000 0.000000 0.000000 12.540247 -0.330129 -0.813627 1.392356 -1.560683 11.627365 6.176862 0.549673 -2.495276 6.477021 35.793511 57.887936 -0.946939 27.996520 0.368625 0.000000 0.000000 0.000000 
-0.044518 31.233482 3.786160 0.000000 0.000000 0.000000 -14.521660 -1.354462 -4.783091 -34.078536 22.041717 10.908355 48.158803 -7.664610 11.749331 -5.283381 -7.198262 -0.887402 -1.971516 0.121392 -1.253618 0.000000 0.000000 0.000000 -14.201619 -0.650648 -4.783385 -16.787751 -31.814413 -0.603864 36.605296 9.691828 -11.089395 -4.467281 7.933214 -4.960529 -2.005327 0.530231 -0.089325 0.000000 0.000000 0.000000 -14.413274 -1.630169 -5.175500 5.146642 -1.526480 2.080031 13.612471 -0.785038 -0.564060 0.480703 2.380523 -0.452721 0.000000 0.000000 0.000000 12.159454 -0.242106 -0.741222 12.056539 0.720909 1.073392 -2.485491 0.640192 3.004703 0.000000 0.000000 0.000000 12.448617 -0.121937 -0.821862 0.847415 6.737050 -10.180209 -2.016557 -2.657311 -0.524501 65.334543 -67.191037 -5.021052 0.213988 -26.942187 1.323654 0.000000 0.000000 0.000000 12.536857 -0.331721 -0.815240 1.392370 -1.566095 11.626714 6.185252 0.546113 -2.491761 6.464760 35.805197 57.895928 -0.948597 28.014361 0.370376 0.000000 0.000000 0.000000 
-0.049421 31.237747 3.791971 0.000000 0.000000 0.000000 -14.509880 -1.310484 -4.786861 -34.088880 22.035257 10.905412 48.143244 -7.667529 11.758732 -5.259839 -7.200706 -0.885460 -1.977323 0.120364 -1.247729 0.000000 0.000000 0.000000 -14.187475 -0.623831 -4.788603 -16.759075 -31.833739 -0.602842 36.566569 9.700603 -11.083800 -4.467933 7.959223 -4.950457 -2.005215 0.532113 -0.083181 0.000000 0.000000 0.000000 -14.396693 -1.598288 -5.176025 5.143585 -1.525298 2.084451 13.610413 -0.789657 -0.566838 0.485214 2.378714 -0.453013 0.000000 0.000000 0.000000 12.162492 -0.246950 -0.745174 12.052159 0.722427 1.088867 -2.509369 0.673416 2.989401 0.000000 0.000000 0.000000 12.449491 -0.126936 -0.822325 0.845277 6.731089 -10.173502 -2.019723 -2.664542 -0.514649 65.083664 -67.172301 -5.242158 0.202647 -26.911447 1.311322 0.000000 0.000000 0.000000 12.531691 -0.338764 -0.817457 1.393850 -1.571881 11.617445 6.191963 0.549374 -2.486518 6.454017 35.812628 57.906009 -0.946773 28.034945 0.372451 0.000000 0.000000 0.000000 
-0.053512 31.241400 3.797386 0.000000 0.000000 0.000000 -14.496134 -1.250492 -4.791240 -34.105266 22.016708 10.900088 48.125878 -7.673022 11.769253 -5.230213 -7.206650 -0.876420 -1.985379 0.118567 -1.239105 0.000000 0.000000 0.000000 -14.170810 -0.580950 -4.795384 -16.717924 -31.878897 -0.604131 36.513812 9.709241 -11.074049 -4.480497 7.990439 -4.948831 -1.986692 0.539814 -0.075738 0.000000 0.000000 0.000000 -14.378557 -1.552305 -5.177261 5.145183 -1.526456 2.090827 13.607184 -0.798938 -0.569093 0.489028 2.382435 -0.455262 0.000000 0.000000 0.000000 12.165700 -0.256246 -0.748708 12.036742 0.725251 1.118801 -2.541155 0.729789 2.961892 0.000000 0.000000 0.000000 12.448798 -0.136601 -0.821901 0.842484 6.733986 -10.161821 -2.018397 -2.679899 -0.505465 64.631997 -67.173708 -5.655438 0.194386 -26.860416 1.303779 0.000000 0.000000 0.000000 12.525781 -0.350484 -0.819562 1.397017 -1.576249 11.600257 6.198570 0.563445 -2.480414 6.448080 35.817444 57.915626 -0.941992 28.053407 0.375133 0.000000 0.000000 0.000000 
-0.056561 31.243916 3.802416 0.000000 0.000000 0.000000 -14.480790 -1.182697 -4.794760 -34.126876 21.990962 10.890138 48.111702 -7.674345 11.777330 -5.203266 -7.210144 -0.851384 -1.992495 0.116937 -1.230559 0.000000 0.000000 0.000000 -14.153341 -0.524316 -4.801104 -16.672709 -31.941687 -0.611539 36.463030 9.719535 -11.062520 -4.503295 8.021201 -4.943214 -1.978379 0.552566 -0.069655 0.000000 0.000000 0.000000 -14.361477 -1.496690 -5.178802 5.151117 -1.530989 2.097560 13.603761 -0.812210 -0.569906 0.492099 2.386688 -0.458693 0.000000 0.000000 0.000000 12.169865 -0.269029 -0.750530 12.011379 0.729082 1.159042 -2.575346 0.807437 2.922547 0.000000 0.000000 0.000000 12.447841 -0.150177 -0.819538 0.838881 6.746575 -10.142936 -2.014421 -2.699896 -0.497856 64.017881 -67.196002 -6.228692 0.191711 -26.796200 1.302660 0.000000 0.000000 0.000000 12.520176 -0.366188 -0.820596 1.401649 -1.577856 11.574929 6.202546 0.584361 -2.472071 6.449366 35.822881 57.919260 -0.935773 28.063130 0.378778 0.000000 0.000000 0.000000 
-0.058603 31.244537 3.806620 0.000000 0.000000 0.000000 -14.462490 -1.112898 -4.796018 -34.152609 21.961150 10.874725 48.102758 -7.668460 11.781030 -5.183780 -7.207289 -0.810132 -1.997631 0.116287 -1.224492 0.000000 0.000000 0.000000 -14.137710 -0.457834 -4.804651 -16.629743 -32.008022 -0.625463 36.425846 9.732666 -11.052861 -4.529167 8.044037 -4.924257 -1.996065 0.567737 -0.066993 0.000000 0.000000 0.000000 -14.347765 -1.435192 -5.179304 5.159324 -1.539417 2.103528 13.600856 -0.828802 -0.568654 0.492742 2.390178 -0.466708 0.000000 0.000000 0.000000 12.175973 -0.285119 -0.749612 11.976842 0.734603 1.204454 -2.604307 0.903692 2.873568 0.000000 0.000000 0.000000 12.448387 -0.166958 -0.814757 0.834459 6.767733 -10.114952 -2.002519 -2.724231 -0.487257 63.300445 -67.236129 -6.911671 0.194191 -26.722154 1.308037 0.000000 0.000000 0.000000 12.517264 -0.385234 -0.819314 1.407867 -1.574783 11.542845 6.201915 0.601959 -2.460442 6.461212 35.832651 57.913372 -0.929645 28.060697 0.384231 0.000000 0.000000 0.000000 
